<svg width="48" height="47" fill="none" xmlns="http://www.w3.org/2000/svg"><g filter="url(#filter0_d_145_52)"><rect x="7" y="7" width="33.452" height="33.001" rx="16.5" fill="#fff"/></g><circle cx="23.726" cy="23.726" r="14.726" stroke="#4380D3" stroke-width="4"/><path d="M33.253 21.898a9.101 9.101 0 00-.742-3.596 9.382 9.382 0 00-2.115-3.05 9.783 9.783 0 00-3.164-2.037A10.074 10.074 0 0023.5 12.5c-1.28 0-2.549.243-3.732.715a9.783 9.783 0 00-3.164 2.038 9.382 9.382 0 00-2.115 3.049 9.101 9.101 0 00-.742 3.596h19.506z" fill="url(#paint0_radial_145_52)"/><ellipse cx=".332" cy=".657" rx=".332" ry=".657" transform="matrix(.52382 -.85183 .73874 .67399 16.138 17.76)" fill="#fff"/><ellipse cx=".312" cy=".698" rx=".312" ry=".698" transform="matrix(.76067 .64914 -.4986 .86683 18.435 15.546)" fill="#fff"/><ellipse cx=".323" cy=".676" rx=".323" ry=".676" transform="matrix(.63478 -.7727 .63429 .7731 28.792 17.093)" fill="#fff"/><ellipse cx=".311" cy=".701" rx=".311" ry=".701" transform="matrix(.7767 .62986 -.47962 .87748 20.823 15.336)" fill="#fff"/><ellipse cx=".352" cy=".61" rx=".352" ry=".61" transform="matrix(-.11283 .99361 -.9861 -.16614 25.963 15.092)" fill="#fff"/><ellipse cx=".333" cy=".655" rx=".333" ry=".655" transform="matrix(-.50622 .8624 -.75411 -.65675 20.842 18.336)" fill="#fff"/><ellipse cx=".352" cy=".609" rx=".352" ry=".609" transform="matrix(-.10571 .9944 -.98779 -.1558 24.45 17.528)" fill="#fff"/><ellipse cx=".322" cy=".678" rx=".322" ry=".678" transform="matrix(-.64279 .76604 -.62625 -.77963 23.794 15.932)" fill="#fff"/><ellipse cx=".307" cy=".709" rx=".307" ry=".709" transform="matrix(-.81982 -.57263 .42595 -.90475 26.567 18.277)" fill="#fff"/><path d="M14.61 27.582l16.938-.423.139 5.327-15.306-.254-1.77-4.65z" fill="url(#paint1_radial_145_52)"/><path fill="url(#paint2_linear_145_52)" d="M15.318 21.591h16.364v3.636H15.318z"/><path d="M16.728 28.047c-.51 0-1.95-.169-3.09-2.029l-.138-.887 1.215-.465h17.041l.729 1.86-2.013 1.775-3.888-1.141-3.4 1.141-3.298-1.48-3.158 1.226z" fill="url(#paint3_linear_145_52)"/><path d="M14.923 22.298v2.536m0 0h16.902m-16.902 0c-2.195.544-1.421 1.644-.128 2.58m17.03-2.58v-2.62m0 2.62c.775.367.868.888 0 2.58m0 0c-.34.748-2.013 1.86-4.824-.206-.158-.093-.104-.09-.486.036-.925.437-2.83 1.041-3.158 1.142-.417.126-2.144-1.52-3.749-1.353-1.214.127-2.464 1.74-3.054 1.437a14.073 14.073 0 01-1.76-1.057m17.031 0c.611 3.99-.555 5.017-1.215 5.03-4.21.043-12.633.102-12.633 0-2.395-.168-3.174-2.93-3.182-5.03M23.5 12.951c-9.23 0-11.103 8.156-9.472 8.952 1.978.159 9.854 0 9.854 0h9.09c1.63 0-.243-8.952-9.472-8.952z" stroke="#000"/><defs><radialGradient id="paint0_radial_145_52" cx="0" cy="0" r="1" gradientUnits="userSpaceOnUse" gradientTransform="matrix(6.9261 -.50575 .74538 10.20772 25.302 18.063)"><stop offset=".673" stop-color="#FFA61F"/><stop offset="1" stop-color="#F5870B"/></radialGradient><radialGradient id="paint1_radial_145_52" cx="0" cy="0" r="1" gradientUnits="userSpaceOnUse" gradientTransform="matrix(6.06316 -.14332 .0687 2.90643 24.726 28.736)"><stop offset=".673" stop-color="#FFA61F"/><stop offset="1" stop-color="#F5870B"/></radialGradient><linearGradient id="paint2_linear_145_52" x1="15.318" y1="23.409" x2="31.682" y2="23.409" gradientUnits="userSpaceOnUse"><stop stop-color="#C9514E"/><stop offset=".1" stop-color="#FC4847"/><stop offset=".4" stop-color="#DF3030"/><stop offset=".7" stop-color="#C42222"/></linearGradient><linearGradient id="paint3_linear_145_52" x1="13.5" y1="26.483" x2="32.485" y2="26.483" gradientUnits="userSpaceOnUse"><stop stop-color="#3DF05D"/><stop offset=".5" stop-color="#15CF39"/><stop offset="1" stop-color="#17B12B"/></linearGradient><filter id="filter0_d_145_52" x="0" y="0" width="47.452" height="47.001" filterUnits="userSpaceOnUse" color-interpolation-filters="sRGB"><feFlood flood-opacity="0" result="BackgroundImageFix"/><feColorMatrix in="SourceAlpha" values="0 0 0 0 0 0 0 0 0 0 0 0 0 0 0 0 0 0 127 0" result="hardAlpha"/><feMorphology radius="2" operator="dilate" in="SourceAlpha" result="effect1_dropShadow_145_52"/><feOffset/><feGaussianBlur stdDeviation="2.5"/><feComposite in2="hardAlpha" operator="out"/><feColorMatrix values="0 0 0 0 0 0 0 0 0 0 0 0 0 0 0 0 0 0 0.09 0"/><feBlend in2="BackgroundImageFix" result="effect1_dropShadow_145_52"/><feBlend in="SourceGraphic" in2="effect1_dropShadow_145_52" result="shape"/></filter></defs></svg>